<svg xmlns="http://www.w3.org/2000/svg" width="132" height="21.589" viewBox="0 0 132 21.589"><defs><style>.a{fill:#fff;}.b{fill:#48ca45;}.c{fill:#a8a8a8;font-size:16px;font-family:MyriadPro-Semibold, Myriad Pro;font-weight:600;}</style></defs><path class="a" d="M145.78,33.475c-2.733,0-3.639,1.486-3.876,2.018a3.617,3.617,0,0,0-3.579-2.018,4.291,4.291,0,0,0-3.385,1.275,2.813,2.813,0,0,0-.663-1.322l-3.61-.039a3.315,3.315,0,0,1,.2.36c.037.074.075.156.115.252.009.021.017.043.026.065.046.115.092.244.136.388a7.316,7.316,0,0,1,.251,2.267,7.776,7.776,0,0,1-.118.947h0l-1.721,9.223h3.829l1.654-9.062a2.548,2.548,0,0,1,.8-1.375,2.018,2.018,0,0,1,1.8-.173s1.112.392,1,2.38l-1.5,8.23h3.765l1.464-8.147.157-.76a2.915,2.915,0,0,1,.887-1.6,2.014,2.014,0,0,1,1.678-.1s1.112.392,1,2.38l-1.5,8.23h3.764l1.464-8.147S150.569,33.475,145.78,33.475Z" transform="translate(-106.941 -28.309)"/><path class="a" d="M62.206,37.7h0c-.009-.1-.017-.154-.017-.154-.7-4.84-6.537-3.865-6.537-3.865A7.968,7.968,0,0,0,49.569,37.1h0a6.435,6.435,0,0,0-.517.9q-.1.2-.178.389l-.016.039c-.031.075-.061.149-.09.222a10.163,10.163,0,0,0-.481,1.614,6.68,6.68,0,0,0-.218,1.7s0,0,0,.007h0a9.043,9.043,0,0,0,.056,1.133c.7,4.84,6.537,3.865,6.537,3.865a7.9,7.9,0,0,0,6.276-3.728,8.95,8.95,0,0,0,1.273-3.882q.016-.166.024-.326c0-.062.006-.124.008-.187,0-.147.005-.286,0-.417,0-.061,0-.122,0-.184C62.233,38.019,62.218,37.825,62.206,37.7Zm-3.44,1.013s-.01.13-.035.333h0s0,.024-.008.061a8.447,8.447,0,0,1-.261,1.277,7.745,7.745,0,0,1-.689,1.769v0a3.934,3.934,0,0,1-3.4,2.433s-2.71.242-2.492-3.1c0,0,.021-.281.082-.668h0a8.621,8.621,0,0,1,.722-2.375c.074-.166.155-.335.247-.507.04-.076.065-.121.065-.121v0a3.826,3.826,0,0,1,3.277-2.2S58.985,35.373,58.767,38.713Z" transform="translate(-40.395 -28.481)"/><path class="a" d="M262.96,42.582c.092-.5.291-1.517.406-2.106.023-.106.044-.215.064-.326l.024-.121,0,0c.035-.212.066-.43.087-.659.01-.111.019-.22.024-.326,0-.062.006-.124.008-.187,0-.147.005-.286,0-.417,0-.061,0-.122,0-.184-.008-.238-.023-.433-.034-.557h0c-.009-.1-.017-.154-.017-.154-.7-4.84-6.537-3.865-6.537-3.865A7.969,7.969,0,0,0,250.9,37.1h0a6.428,6.428,0,0,0-.517.9q-.1.2-.178.389l-.016.039q-.047.112-.09.222a10.145,10.145,0,0,0-.481,1.614,6.68,6.68,0,0,0-.218,1.7v.007h0a9.037,9.037,0,0,0,.056,1.133c.7,4.84,6.537,3.865,6.537,3.865a9.356,9.356,0,0,0,3.584-1.1,3.006,3.006,0,0,0,.533,1.185h3.467C262.736,46.143,262.76,44.187,262.96,42.582ZM260.1,38.713s-.01.13-.035.333h0l-.008.061a8.433,8.433,0,0,1-.261,1.277,7.744,7.744,0,0,1-.689,1.769v0a3.934,3.934,0,0,1-3.4,2.433s-2.71.242-2.491-3.1c0,0,.021-.281.082-.668h0a8.627,8.627,0,0,1,.722-2.375c.074-.166.155-.335.247-.507.04-.076.065-.121.065-.121v0a3.825,3.825,0,0,1,3.277-2.2S260.314,35.373,260.1,38.713Z" transform="translate(-204.798 -28.481)"/><path class="a" d="M20.3,14.8,6.23,13.737v2.735H9.636L6.889,30.843h3.828l2.519-14.371h6.751Z" transform="translate(-6.23 -12.261)"/><g transform="translate(59.803 0)"><path class="a" d="M389.788,37.7h0c-.009-.1-.017-.154-.017-.154-.7-4.84-6.537-3.865-6.537-3.865a7.968,7.968,0,0,0-6.084,3.424h0a6.415,6.415,0,0,0-.517.9q-.1.2-.178.389l-.016.039q-.047.112-.09.222a10.162,10.162,0,0,0-.481,1.614,6.681,6.681,0,0,0-.218,1.7v.007h0a9.042,9.042,0,0,0,.056,1.133c.7,4.84,6.537,3.865,6.537,3.865a7.9,7.9,0,0,0,6.276-3.728,8.953,8.953,0,0,0,1.273-3.882c.01-.111.019-.22.024-.326,0-.062.006-.124.008-.187,0-.147.005-.286,0-.417,0-.061,0-.122,0-.184C389.815,38.019,389.8,37.825,389.788,37.7Zm-3.44,1.013s-.01.13-.035.333h0s0,.024-.008.061a8.444,8.444,0,0,1-.261,1.277,7.743,7.743,0,0,1-.689,1.769v0a3.934,3.934,0,0,1-3.4,2.433s-2.71.242-2.492-3.1c0,0,.021-.281.082-.668h0a8.627,8.627,0,0,1,.722-2.375c.073-.166.155-.335.247-.507.04-.076.066-.121.066-.121v0a3.826,3.826,0,0,1,3.277-2.2S386.567,35.373,386.348,38.713Z" transform="translate(-367.698 -28.481)"/><path class="a" d="M346.365,14.8l-14.072-1.068v2.735H335.7l-2.747,14.371h3.828L339.3,16.472h6.75Z" transform="translate(-332.292 -12.261)"/><path class="b" d="M448.438,6.935h0c0-.041-.007-.065-.007-.065a1.749,1.749,0,0,0-.644-1.178,3.233,3.233,0,0,0-2.651,1.783l-.044.08-.043.115V7.588c.3-.909-.562-1.319-1.357-1.5a3.062,3.062,0,0,0-.532.6h0a2.675,2.675,0,0,0-.216.378c-.027.055-.052.109-.074.163l-.007.016c-.013.031-.026.062-.037.093a4.236,4.236,0,0,0-.2.674,2.79,2.79,0,0,0-.091.712v0h0a3.779,3.779,0,0,0,.023.473c.293,2.022,2.73,1.614,2.73,1.614a3.3,3.3,0,0,0,2.621-1.557,3.738,3.738,0,0,0,.532-1.621c0-.046.008-.092.01-.136,0-.026,0-.052,0-.078,0-.061,0-.119,0-.174,0-.025,0-.051,0-.077C448.449,7.068,448.443,6.987,448.438,6.935ZM445.061,9.81h.1A.817.817,0,0,1,445.061,9.81Z" transform="translate(-422.313 -5.692)"/></g><text class="c" transform="translate(85 17.589)"><tspan x="0" y="0">Admin</tspan></text></svg>